<!DOCTYPE svg PUBLIC "-//W3C//DTD SVG 1.1//EN" "http://www.w3.org/Graphics/SVG/1.1/DTD/svg11.dtd">
<!-- Uploaded to: SVG Repo, www.svgrepo.com, Transformed by: SVG Repo Mixer Tools -->
<svg height="800px" width="800px" version="1.1" id="Capa_1" xmlns="http://www.w3.org/2000/svg" xmlns:xlink="http://www.w3.org/1999/xlink" viewBox="0 0 56.00 56.00" xml:space="preserve" fill="#000000" transform="rotate(0)matrix(1, 0, 0, 1, 0, 0)">
<g id="SVGRepo_bgCarrier" stroke-width="0"/>
<g id="SVGRepo_tracerCarrier" stroke-linecap="round" stroke-linejoin="round" stroke="#CCCCCC" stroke-width="0.6719999999999999"> <path style="fill:#A5A5A4;" d="M29,28c0-11.917,7.486-22.112,18-26.147C43.892,0.66,40.523,0,37,0C21.561,0,9,12.561,9,28 s12.561,28,28,28c3.523,0,6.892-0.66,10-1.853C36.486,50.112,29,39.917,29,28z"/> </g>
<g id="SVGRepo_iconCarrier"> <path style="fill:#A5A5A4;" d="M29,28c0-11.917,7.486-22.112,18-26.147C43.892,0.66,40.523,0,37,0C21.561,0,9,12.561,9,28 s12.561,28,28,28c3.523,0,6.892-0.66,10-1.853C36.486,50.112,29,39.917,29,28z"/> </g>
</svg>